HIERARCHY
ROOT Hips
{
	OFFSET 0.000000 0.000000 0.000000
	CHANNELS 6 Xposition Yposition Zposition Yrotation Xrotation Zrotation
	JOINT Chest
	{
		OFFSET 0.000000 -0.009281 11.569106
		CHANNELS 3 Yrotation Xrotation Zrotation
		JOINT Chest2
		{
			OFFSET -0.000000 0.016865 9.269641
			CHANNELS 3 Yrotation Xrotation Zrotation
			JOINT Chest3
			{
				OFFSET -0.000000 0.000001 8.374491
				CHANNELS 3 Yrotation Xrotation Zrotation
				JOINT Chest4
				{
					OFFSET -0.000000 0.000001 8.374493
					CHANNELS 3 Yrotation Xrotation Zrotation
					JOINT Neck
					{
						OFFSET -0.000000 0.000002 12.152554
						CHANNELS 3 Yrotation Xrotation Zrotation
						JOINT Head
						{
							OFFSET -0.000000 0.040101 7.802319
							CHANNELS 3 Yrotation Xrotation Zrotation
							End Site
							{
								OFFSET -0.000000 0.020947 14.853096
							}
						}
					}
					JOINT RightCollar
					{
						OFFSET 2.894404 0.000001 6.791374
						CHANNELS 3 Yrotation Xrotation Zrotation
						JOINT RightShoulder
						{
							OFFSET 13.574684 0.000001 0.000000
							CHANNELS 3 Yrotation Xrotation Zrotation
							JOINT RightElbow
							{
								OFFSET 23.923903 0.000002 0.000000
								CHANNELS 3 Yrotation Xrotation Zrotation
								JOINT RightWrist
								{
									OFFSET 19.846718 0.012767 0.000000
									CHANNELS 3 Yrotation Xrotation Zrotation
									End Site
									{
										OFFSET 14.973145 0.000001 0.000000
									}
								}
							}
						}
					}
					JOINT LeftCollar
					{
						OFFSET -2.894404 0.000001 6.791374
						CHANNELS 3 Yrotation Xrotation Zrotation
						JOINT LeftShoulder
						{
							OFFSET -13.574684 -0.000001 0.000000
							CHANNELS 3 Yrotation Xrotation Zrotation
							JOINT LeftElbow
							{
								OFFSET -23.923903 -0.000002 0.000000
								CHANNELS 3 Yrotation Xrotation Zrotation
								JOINT LeftWrist
								{
									OFFSET -19.846718 0.012763 0.000000
									CHANNELS 3 Yrotation Xrotation Zrotation
									End Site
									{
										OFFSET -14.973145 -0.000001 0.000000
									}
								}
							}
						}
					}
				}
			}
		}
	}
	JOINT RightHip
	{
		OFFSET 9.469263 0.004643 0.045487
		CHANNELS 3 Yrotation Xrotation Zrotation
		JOINT RightKnee
		{
			OFFSET 0.000000 0.002661 -40.478676
			CHANNELS 3 Yrotation Xrotation Zrotation
			JOINT RightAnkle
			{
				OFFSET 0.000000 0.049106 -35.224068
				CHANNELS 3 Yrotation Xrotation Zrotation
				JOINT RightToe
				{
					OFFSET -0.000001 12.539529 -6.151390
					CHANNELS 3 Yrotation Xrotation Zrotation
					End Site
					{
						OFFSET -0.000001 5.044994 -1.291870
					}
				}
			}
		}
	}
	JOINT LeftHip
	{
		OFFSET -9.469263 0.004641 0.045487
		CHANNELS 3 Yrotation Xrotation Zrotation
		JOINT LeftKnee
		{
			OFFSET 0.000000 0.002661 -40.478676
			CHANNELS 3 Yrotation Xrotation Zrotation
			JOINT LeftAnkle
			{
				OFFSET 0.000000 0.049106 -35.224068
				CHANNELS 3 Yrotation Xrotation Zrotation
				JOINT LeftToe
				{
					OFFSET -0.000001 12.539529 -6.151390
					CHANNELS 3 Yrotation Xrotation Zrotation
					End Site
					{
						OFFSET -0.000001 5.044994 -1.291870
					}
				}
			}
		}
	}
}
MOTION
Frames: 8
Frame Time: 0.016667
37.033855 17.301706 82.952698 -3.295752 1.449025 -119.051290 -1.497593 -3.925104 2.831529 -0.494408 -1.833056 1.239481 -0.494408 -1.833056 1.239484 -0.367058 -1.375803 0.928053 0.545432 -12.861480 -2.841237 -0.138464 12.269515 -5.174304 9.644383 5.303663 -1.378530 42.868289 -15.001684 -14.331571 -24.279716 -61.484072 84.438419 -42.883408 40.265755 51.032407 -8.035958 5.168357 -6.575745 -40.289363 -10.946437 18.282104 -3.328734 -65.135484 -59.394499 30.274957 17.117243 -75.073976 -7.712075 5.564135 -5.113592 5.559524 -19.683494 -15.317655 -2.944145 8.814401 -6.605218 0.242905 -0.824934 0.256718 -1.397339 2.175995 4.504469 1.620509 -8.518906 1.835394 -0.042440 1.004191 11.497977 0.103616 1.349533 -0.116991 
36.846237 17.895203 82.995743 -3.089128 1.657196 -118.558465 -1.667580 -3.688606 2.376829 -0.474685 -1.801414 1.210036 -0.474685 -1.801414 1.210034 -0.352419 -1.352008 0.906053 0.622219 -12.916757 -2.796975 0.027795 12.171132 -5.056907 9.670913 5.459882 -1.396103 42.797880 -15.001809 -14.456741 -24.450325 -61.374591 84.655974 -42.841911 40.174920 51.041635 -8.009490 5.159826 -6.617316 -40.423061 -11.148414 18.333119 -3.642481 -65.001510 -59.017308 30.264657 17.268619 -75.039327 -7.243413 5.840926 -5.357402 4.267932 -19.373992 -12.992233 -2.277473 9.442718 -5.183435 -0.222038 -1.415343 0.144362 -1.493044 2.981806 2.045997 2.424286 -8.455158 -1.324188 -0.882177 -0.089949 11.339254 -0.012969 1.533074 -0.365949 
36.644829 18.601515 83.064072 -2.988308 1.689378 -118.323492 -1.694295 -3.545494 2.190415 -0.486283 -1.771461 1.183346 -0.486283 -1.771462 1.183346 -0.361253 -1.329545 0.886028 0.728572 -13.036852 -2.768843 0.245723 11.952839 -4.956513 9.655242 5.523211 -1.393838 42.768889 -14.923122 -14.452733 -24.533831 -61.379987 84.737799 -42.777967 40.002280 51.035874 -8.062727 5.247082 -6.609631 -40.443579 -11.140542 18.475993 -3.916781 -65.073992 -58.713372 30.265651 17.487437 -75.157073 -6.504717 5.700124 -5.154196 2.850961 -19.047675 -10.065426 -1.460356 10.399607 -3.918943 -0.681422 -1.950394 0.099553 -1.401871 3.485894 -0.802753 3.072060 -8.061113 -4.518193 -1.749278 -1.200624 10.631349 -0.138325 1.634531 -0.350973 
36.442741 19.382362 83.128433 -2.978759 1.606790 -118.305789 -1.645609 -3.460433 2.215533 -0.511879 -1.732223 1.178095 -0.511879 -1.732224 1.178094 -0.380542 -1.300161 0.882052 0.841111 -13.198413 -2.768643 0.464955 11.656871 -4.906148 9.586529 5.507747 -1.470623 42.815543 -14.906078 -14.346580 -24.503314 -61.407745 84.661458 -42.665415 39.784913 51.048161 -8.099955 5.289725 -6.613177 -40.424451 -10.926078 18.651785 -3.935672 -65.237486 -58.735549 30.300031 17.692569 -75.289763 -5.618578 5.380963 -3.225574 1.641099 -18.581487 -7.493903 -0.064160 11.392786 -2.718580 -1.465930 -2.417564 0.092734 -1.212322 3.691399 -3.998610 3.507595 -7.272326 -7.130470 -2.448047 -2.222239 9.547670 -0.333094 1.546607 -0.274335 
36.262939 20.173298 83.156334 -2.937557 1.447279 -118.389185 -1.506827 -3.364496 2.317837 -0.520488 -1.676122 1.195314 -0.520488 -1.676121 1.195324 -0.387061 -1.258116 0.895002 0.909970 -13.374161 -2.794222 0.591036 11.332374 -4.922658 9.540071 5.505092 -1.453284 42.820969 -15.025001 -14.336352 -24.413254 -61.364305 84.583348 -42.622508 39.655081 51.040938 -8.122510 5.385842 -6.491356 -40.510122 -10.845899 18.796875 -3.775265 -65.229884 -58.943119 30.258974 17.612461 -75.332991 -4.625360 4.951360 -0.065654 0.665967 -17.942955 -5.028376 1.794039 12.360058 -1.539200 -2.519319 -2.817425 0.110675 -1.002226 3.668825 -7.288869 3.969571 -6.085729 -8.818561 -3.109856 -3.080470 7.985768 -0.517295 1.270994 -0.188832 
36.116875 20.815514 83.166115 -2.832163 1.104617 -118.527073 -1.184931 -3.321374 2.457755 -0.504891 -1.602816 1.226792 -0.504891 -1.602816 1.226791 -0.375428 -1.203131 0.918708 0.935930 -13.546125 -2.844726 0.625674 11.012901 -5.003981 9.553135 5.612547 -1.336336 42.664688 -15.255724 -14.450597 -24.267239 -61.353691 84.617779 -42.689584 39.648271 50.976191 -8.108424 5.440554 -6.324089 -40.686942 -10.736140 18.867235 -3.468600 -65.136215 -59.225048 30.140020 17.282351 -75.305199 -3.614605 4.774838 3.649559 0.005911 -17.706519 -3.013804 3.896172 13.563935 0.148372 -3.531259 -3.322736 0.168214 -0.441215 3.499946 -10.215080 4.136719 -4.874507 -9.796592 -3.640372 -3.552246 6.221024 -0.597423 0.853126 -0.124987 
36.106167 21.305033 83.095924 -2.788691 0.797749 -118.751213 -0.936940 -3.356340 2.668764 -0.475294 -1.528437 1.260131 -0.475293 -1.528437 1.260129 -0.353299 -1.147315 0.943850 0.948237 -13.692555 -2.910089 0.627856 10.740024 -5.119369 9.607914 5.967980 -1.212635 42.404314 -15.593182 -14.685996 -24.122042 -61.458739 84.755100 -42.731026 39.654958 50.924822 -8.160696 5.643012 -6.222287 -40.778442 -10.614428 19.002577 -3.159058 -65.164444 -59.466516 29.982324 16.890081 -75.271089 -2.827040 4.864521 7.534104 -0.301528 -17.898053 -1.982594 6.028698 14.510848 2.470367 -4.283376 -3.522402 0.212364 0.184005 3.303804 -12.116938 3.921390 -4.050620 -10.144639 -4.143243 -3.367986 4.256680 -0.312991 0.248720 0.003723 
36.052517 21.716337 82.985336 -2.761095 0.518874 -119.004285 -0.712046 -3.428780 2.925903 -0.440671 -1.466961 1.272055 -0.440671 -1.466961 1.272059 -0.327433 -1.101145 0.952935 0.958760 -13.792273 -2.979358 0.623679 10.553680 -5.243762 9.641370 6.280470 -1.066293 42.180851 -15.794278 -14.860810 -24.091600 -61.603587 84.945628 -42.728639 39.643016 50.912090 -8.276287 5.933732 -6.132122 -40.738161 -10.580574 19.110685 -2.983397 -65.369145 -59.589398 29.858261 16.647913 -75.269456 -2.245790 5.171942 11.343540 -0.200378 -18.659426 -2.207070 7.949629 15.254635 5.240054 -4.629334 -3.328000 0.207754 0.669038 3.152373 -12.571312 3.590669 -3.604681 -9.775246 -5.041773 -2.980404 2.320752 0.551245 -0.280900 0.066654 
